<svg xmlns="http://www.w3.org/2000/svg" viewBox="0 0 297.78 81.42"><defs><style>.cls-1{fill:#fff;}</style></defs><title>fwb_logo</title><g id="Calque_2" data-name="Calque 2"><g id="Calque_1-2" data-name="Calque 1"><path class="cls-1" d="M14.26,0C11.55,0,9.7,1.51,9.59,2.53a3.57,3.57,0,0,0,1.59,3c7.17,5.6-13.51,16.5-11,38.7C2,59.93,20.1,81.35,23.83,81.35a.66.66,0,0,0,.36-.1C27.07,79.39,15.72,58.82,13.12,52c-5.77-15.23,2.94-25,6.34-30.64C23.92,13.93,25,6.88,21.52,3.47,18.87.87,16.32,0,14.26,0"/><path class="cls-1" d="M66.33,6.21l-.74,0C39.27,7.41,35.41,39.69,35.35,51.39c0,1,.08,6.13-1.1,6.13-.24,0-.53-.21-.88-.71-1.37-2-5.28-7.64-6.44-9.16A1.57,1.57,0,0,0,25.69,47c-.94,0-1.82,1-1.41,2.92.2,1,2.82,12,6.57,16.56A8.87,8.87,0,0,0,37,69.63c2.5,0,5.08-1.76,6.53-7.48C46,53.29,43,18.09,73,14.06a3,3,0,0,0,1.89-4.79c-1-1.17-4-3.06-8.58-3.06"/><path class="cls-1" d="M82.39,37.78c-.95-.3-1-.89-.29-1.93,1.2-1.79,6.09-12.57.06-18.23a7.5,7.5,0,0,0-1.82-1.27c-1.11-.53-2.5,0-2.48,1.9.14,13.68-6.58,16.3-16,16.4H60.75v6.28l8.33.58.15,0c9,.71,14.42,6.66,14.42,13.51,0,8.24-6.85,13.57-14.42,13.57a13.58,13.58,0,0,1-7.17-1.82c-.39-.25-.92-.63-1.34-.94,0,1.07,0,13.41,0,13.41a23.27,23.27,0,0,0,10.35,2.18c12.12,0,27.27-8.93,27.27-24.54,0-8.14-6.75-16.21-16-19.1"/><path class="cls-1" d="M297.17,57.45a7.75,7.75,0,0,0-2.36-1.68l-.26-.15a5.21,5.21,0,0,1-1.24-.8,1.26,1.26,0,0,1,0-1.7,1.54,1.54,0,0,1,1-.3,2.26,2.26,0,0,1,1,.21,2.44,2.44,0,0,1,.82.68l1.19-1.12-.12-.12a3.82,3.82,0,0,0-1.3-.86,4.24,4.24,0,0,0-1.59-.3,3.22,3.22,0,0,0-2.23.74,2.58,2.58,0,0,0-.82,2,2.92,2.92,0,0,0,.15.95,2.34,2.34,0,0,0,.44.77,4.62,4.62,0,0,0,.86.75,13.53,13.53,0,0,0,1.36.82l.27.14a4.32,4.32,0,0,1,1.36,1,1.58,1.58,0,0,1,.33,1,1.41,1.41,0,0,1-.44,1.09,1.69,1.69,0,0,1-1.19.4,2.42,2.42,0,0,1-1.16-.29,5,5,0,0,1-1.18-1l-1.17,1.2.11.11a5.29,5.29,0,0,0,1.6,1.14,4.54,4.54,0,0,0,1.82.35,3.43,3.43,0,0,0,2.41-.81,2.88,2.88,0,0,0,.89-2.23,3.07,3.07,0,0,0-.61-2M283.66,60.6a.63.63,0,0,0-.22,0,.48.48,0,0,0-.16.09l-.05-.05a.9.9,0,0,0,.09-.16.66.66,0,0,0,0-.22V57.92a.66.66,0,0,0,0-.2.76.76,0,0,0-.09-.17l.06-.06a.52.52,0,0,0,.15.09l.22,0h3.63V56h-3.63a.7.7,0,0,0-.21,0,.58.58,0,0,0-.17.1l-.06-.06a.85.85,0,0,0,.1-.19.55.55,0,0,0,0-.18V53.48a.65.65,0,0,0,0-.2,1,1,0,0,0-.09-.18l.05-.06a1,1,0,0,0,.2.1.57.57,0,0,0,.18,0h4.15l-.18-1.66h-6V62.26h6l.2-1.66Zm-8.88,0a.66.66,0,0,0-.22,0,.46.46,0,0,0-.15.09l-.06-.06a.5.5,0,0,0,.1-.14.69.69,0,0,0,0-.23V51.5H272.7V62.26h5.46l.27-1.66Zm-8.94,0a.64.64,0,0,0-.22,0,.44.44,0,0,0-.15.09l-.06-.06a.45.45,0,0,0,.09-.14.65.65,0,0,0,0-.23V51.5h-1.77V62.26h5.46l.26-1.66Zm-10.06,0a.65.65,0,0,0-.22,0,.49.49,0,0,0-.16.09l-.05-.05a.82.82,0,0,0,.09-.16.62.62,0,0,0,0-.22V57.92a.61.61,0,0,0,0-.2.7.7,0,0,0-.09-.17l.06-.06a.48.48,0,0,0,.15.09l.22,0h3.63V56h-3.63a.69.69,0,0,0-.21,0,.6.6,0,0,0-.17.1l-.06-.06a1,1,0,0,0,.1-.19.63.63,0,0,0,0-.18V53.48a.61.61,0,0,0,0-.2.88.88,0,0,0-.09-.18l.05-.06.19.1.19,0h4.15l-.18-1.66h-6V62.26h6l.2-1.66ZM247.47,57a.67.67,0,0,0-.12-.19.36.36,0,0,0-.13-.06v-.06a.34.34,0,0,0,.13-.06.65.65,0,0,0,.12-.19l2.82-5h-1.94l-1.61,3a3.24,3.24,0,0,0-.26.59,3.64,3.64,0,0,0-.11.73h-.08a3.54,3.54,0,0,0-.11-.71,3.46,3.46,0,0,0-.27-.61l-1.61-3h-1.94l2.81,5a.81.81,0,0,0,.12.17.32.32,0,0,0,.14.08v.06a.32.32,0,0,0-.14.08.8.8,0,0,0-.12.17l-2.91,5.22h2l1.7-3.27a3.59,3.59,0,0,0,.29-.67,3.16,3.16,0,0,0,.09-.64h.08a3.88,3.88,0,0,0,.1.69,3.34,3.34,0,0,0,.27.62l1.7,3.27h2Zm-8.38-5.52h-1.77v6.22a3.59,3.59,0,0,1-.62,2.3,2.7,2.7,0,0,1-3.76,0,3.59,3.59,0,0,1-.62-2.3V51.51h-1.76v6a7.42,7.42,0,0,0,.26,2.17,3.52,3.52,0,0,0,.82,1.42,4.13,4.13,0,0,0,1.43,1,4.68,4.68,0,0,0,3.51,0,4.15,4.15,0,0,0,1.43-1,3.58,3.58,0,0,0,.82-1.42,7.35,7.35,0,0,0,.26-2.17ZM224.67,58a2.23,2.23,0,0,0-.37-.41,3.27,3.27,0,0,0-.51-.37l0-.05.36.08a1.67,1.67,0,0,0,.3,0,2.15,2.15,0,0,0,1.68-.79,2.87,2.87,0,0,0,.69-1.94,2.81,2.81,0,0,0-.89-2.25,3.88,3.88,0,0,0-2.61-.78H220.5V62.26h1.7V58.47c0-.4,0-.7,0-.89s-.06-.41-.11-.67l.07,0a4.81,4.81,0,0,0,.26.59,7.47,7.47,0,0,0,.44.69l2.75,4.1h1.92Zm.15-2.28a1.91,1.91,0,0,1-1.3.37h-1a.63.63,0,0,0-.21,0,.55.55,0,0,0-.16.09l-.06-.06a.65.65,0,0,0,.12-.18.48.48,0,0,0,0-.19V53.32a1.31,1.31,0,0,0-.06-.22.89.89,0,0,0-.09-.16l.06-.06a.59.59,0,0,0,.17.1.63.63,0,0,0,.2,0h1a1.9,1.9,0,0,1,1.3.38,1.48,1.48,0,0,1,.42,1.16,1.51,1.51,0,0,1-.42,1.18m-8.61,1.69a2.41,2.41,0,0,0-1.49-.84v-.09a2.16,2.16,0,0,0,1.18-.76,2.28,2.28,0,0,0,.39-1.38,2.56,2.56,0,0,0-.88-2.09,4,4,0,0,0-2.59-.72h-3V62.26H213a3.86,3.86,0,0,0,2.72-.9,3,3,0,0,0,1-2.31,2.53,2.53,0,0,0-.54-1.65m-1.92-1.86a1.59,1.59,0,0,1-1.15.39h-1.39a.59.59,0,0,0-.2,0,.72.72,0,0,0-.17.1l-.06-.06,0,0a.62.62,0,0,0,.11-.34V53.31a.7.7,0,0,0,0-.18,1.18,1.18,0,0,0-.1-.19l.06-.06a.48.48,0,0,0,.16.1.69.69,0,0,0,.21,0h1.18a2.11,2.11,0,0,1,1.35.35,1.31,1.31,0,0,1,.41,1.07,1.48,1.48,0,0,1-.4,1.12m.32,4.74a2,2,0,0,1-1.42.46h-1.43a.6.6,0,0,0-.21,0l-.17.1-.06-.07a.58.58,0,0,0,.1-.17.62.62,0,0,0,0-.2V57.65a.55.55,0,0,0,0-.18.67.67,0,0,0-.1-.19l.06-.07.17.1a.6.6,0,0,0,.21,0h1.37a3.14,3.14,0,0,1,.92.11,1.41,1.41,0,0,1,.61.38,1.75,1.75,0,0,1,.45,1.17,1.64,1.64,0,0,1-.5,1.28m-8.85-2.7H202v1.59h3.72Zm-11.2,3a.64.64,0,0,0-.22,0,.5.5,0,0,0-.16.09l-.05-.05a.66.66,0,0,0,.09-.16.59.59,0,0,0,0-.22V57.92a.58.58,0,0,0-.12-.37l.06-.06a.51.51,0,0,0,.15.09l.22,0h3.63V56h-3.63a.7.7,0,0,0-.21,0,.57.57,0,0,0-.17.1l-.06-.06a.84.84,0,0,0,.1-.19.51.51,0,0,0,0-.18V53.48a.58.58,0,0,0,0-.2.71.71,0,0,0-.09-.18l.05-.06.19.1.19,0h4.15l-.18-1.66h-6V62.26h6l.2-1.66Zm-6.42-9.1h-1.76V62.26h1.76Zm-6.15,0h-1.71v6.6a6.36,6.36,0,0,0,.08,1q.08.5.25,1.2h-.08a10.3,10.3,0,0,0-.41-1,6.13,6.13,0,0,0-.47-.83l-4.75-6.91h-1.58V62.26H175V55.64a5.81,5.81,0,0,0-.06-.85q-.06-.42-.26-1.3l.08,0a11.22,11.22,0,0,0,.42,1.07,5.82,5.82,0,0,0,.46.78l4.74,6.93H182Zm-13.9,1.35a5.22,5.22,0,0,0-3.92-1.56,5.06,5.06,0,0,0-3.83,1.57,6.07,6.07,0,0,0,0,8,5.57,5.57,0,0,0,7.74,0,6.06,6.06,0,0,0,0-8m-1.26,6.83a3.72,3.72,0,0,1-5.22,0,4.51,4.51,0,0,1,0-5.64A3.4,3.4,0,0,1,164.23,53a3.35,3.35,0,0,1,2.59,1.09,4.49,4.49,0,0,1,0,5.63m-14,.9a.65.65,0,0,0-.22,0,.45.45,0,0,0-.15.09l-.06-.06a.49.49,0,0,0,.09-.14.67.67,0,0,0,0-.23V51.5h-1.77V62.26h5.46l.27-1.66Zm-8.95,0a.64.64,0,0,0-.22,0,.41.41,0,0,0-.15.09l-.06-.06a.52.52,0,0,0,.09-.14.74.74,0,0,0,0-.23V51.5h-1.77V62.26h5.46l.27-1.66Zm-9.18-9.09h-1.54l-3.91,10.74H131L132.18,59h3.54l1.14,3.22h1.76Zm.59,6-.16,0-.18,0h-2.2l-.17,0-.05-.07.11-.11a.57.57,0,0,0,.07-.14l1-2.94a2.52,2.52,0,0,0,.11-.53c0-.23,0-.49.06-.78H134q0,.44.06.78a2.68,2.68,0,0,0,.11.53l1,2.94a.46.46,0,0,0,.07.14.57.57,0,0,0,.12.11Zm-9.49-6-2,7.06a5.51,5.51,0,0,0-.17.76c0,.22-.05.58-.07,1.08h-.09c-.05-.52-.1-.89-.14-1.11a5.71,5.71,0,0,0-.19-.73l-1.85-5.44-1.84,5.46a4.71,4.71,0,0,0-.2.71c0,.22-.09.59-.14,1.11H119c0-.5,0-.86-.06-1.08a5,5,0,0,0-.17-.76l-2-7.06h-1.88l3.26,10.74h1.6L121.07,58a3.27,3.27,0,0,0,.1-.57q0-.36.07-.88h.08c0,.35,0,.64.07.89a3.16,3.16,0,0,0,.11.57l1.35,4.29h1.58l3.27-10.74Z"/><path class="cls-1" d="M297.49,25H294.4V37a11.7,11.7,0,0,0,.14,1.74q.14.9.45,2.18l-.14,0a18.41,18.41,0,0,0-.75-1.88,11.29,11.29,0,0,0-.86-1.5L284.63,25h-2.87V44.48h3.11v-12a10.07,10.07,0,0,0-.12-1.54q-.12-.77-.47-2.35l.14,0c.31.88.57,1.53.76,1.94A10.47,10.47,0,0,0,286,31.9l8.61,12.58h2.87Zm-25.07,2.45a9.48,9.48,0,0,0-7.11-2.82,9.19,9.19,0,0,0-6.95,2.86,10.07,10.07,0,0,0-2.73,7.25A10.06,10.06,0,0,0,258.38,42a10.11,10.11,0,0,0,14,0,10,10,0,0,0,2.75-7.25,10,10,0,0,0-2.75-7.31m-2.29,12.41a6.76,6.76,0,0,1-9.47,0,7.26,7.26,0,0,1-1.8-5.13,7.23,7.23,0,0,1,1.81-5.12,6.18,6.18,0,0,1,4.75-1.95,6.08,6.08,0,0,1,4.7,2,7.25,7.25,0,0,1,1.81,5.1,7.26,7.26,0,0,1-1.79,5.13M248.86,24.94h-3.2V44.47h3.2Zm-9.47,0H227.85l-.41,2.93h4a1.29,1.29,0,0,0,.4,0,.83.83,0,0,0,.27-.17l.12.11a1.46,1.46,0,0,0-.19.35,1.11,1.11,0,0,0,0,.32v16h3.16v-16a1.17,1.17,0,0,0,0-.36,1.41,1.41,0,0,0-.17-.32l.11-.11a1.26,1.26,0,0,0,.3.19,1.11,1.11,0,0,0,.37,0h4.05ZM218,25h-2.79l-7.09,19.51h3.22l2.08-5.86h6.42l2.06,5.86h3.2ZM219,35.88l-.29-.08a1.77,1.77,0,0,0-.33,0h-3.7l-.3,0-.31.09-.1-.14a.81.81,0,0,0,.32-.45l1.86-5.35a4.76,4.76,0,0,0,.2-1c.05-.42.08-.89.1-1.42h.15c0,.53.05,1,.1,1.42a4.64,4.64,0,0,0,.2,1l1.83,5.35a.86.86,0,0,0,.13.26,1,1,0,0,0,.21.19Zm-20.94.85a4.15,4.15,0,0,0-.67-.75,6.13,6.13,0,0,0-.93-.67l.05-.1c.24.06.46.11.65.14a3.38,3.38,0,0,0,.55,0A3.89,3.89,0,0,0,200.79,34,5.2,5.2,0,0,0,202,30.45a5.11,5.11,0,0,0-1.62-4.08A7,7,0,0,0,195.67,25h-5.16V44.48h3.08V37.6q0-1.1-.06-1.62a11,11,0,0,0-.21-1.21l.14,0a9.14,9.14,0,0,0,.47,1.07,13.47,13.47,0,0,0,.81,1.24l5,7.44h3.49Zm.26-4.14a3.46,3.46,0,0,1-2.36.68h-1.9a1.22,1.22,0,0,0-.39,0,1,1,0,0,0-.28.17l-.11-.11a1.15,1.15,0,0,0,.23-.33.91.91,0,0,0,.06-.34V28.24a2.33,2.33,0,0,0-.12-.39,1.49,1.49,0,0,0-.17-.3l.11-.11a1.13,1.13,0,0,0,.3.18,1.26,1.26,0,0,0,.37,0H196a3.45,3.45,0,0,1,2.35.68,2.67,2.67,0,0,1,.76,2.11,2.74,2.74,0,0,1-.76,2.14M177,19l-1.35,3.78H178L180.52,19Zm-.73,22.5a1.28,1.28,0,0,0-.4,0,1,1,0,0,0-.29.17l-.09-.1a1.4,1.4,0,0,0,.16-.3,1.14,1.14,0,0,0,.06-.39V36.6a1.12,1.12,0,0,0-.06-.36,1.31,1.31,0,0,0-.16-.31l.11-.11a.88.88,0,0,0,.28.17,1.62,1.62,0,0,0,.4.06h6.59v-3h-6.59a1.32,1.32,0,0,0-.38,0,1.07,1.07,0,0,0-.31.18l-.11-.11a1.69,1.69,0,0,0,.18-.34,1,1,0,0,0,0-.33v-4a1.11,1.11,0,0,0-.06-.36,1.57,1.57,0,0,0-.16-.32l.09-.11a1.58,1.58,0,0,0,.35.19,1.08,1.08,0,0,0,.34,0h7.53l-.33-3h-10.9V44.48h10.87l.36-3Zm-13.1-13.75a10.35,10.35,0,0,0-7.4-2.75h-5.24V44.48h5.13a10.45,10.45,0,0,0,7.53-2.76,9.25,9.25,0,0,0,2.89-7,9.22,9.22,0,0,0-2.91-7m-2.24,11.91a7.09,7.09,0,0,1-5.1,1.92h-1.54a1.31,1.31,0,0,0-.4,0,.81.81,0,0,0-.28.18l-.12-.11a.77.77,0,0,0,.19-.27,1.42,1.42,0,0,0,0-.4V28.46a1,1,0,0,0,0-.34,1.38,1.38,0,0,0-.18-.33l.12-.12a1.36,1.36,0,0,0,.3.19,1.11,1.11,0,0,0,.37,0H156a6.84,6.84,0,0,1,5,1.93,6.56,6.56,0,0,1,2,4.9,6.49,6.49,0,0,1-2,4.9M136.95,19l-1.35,3.78H138L140.5,19Zm-.73,22.5a1.27,1.27,0,0,0-.4,0,1,1,0,0,0-.29.17l-.1-.1a1.23,1.23,0,0,0,.17-.3,1.14,1.14,0,0,0,.06-.39V36.6a1.12,1.12,0,0,0-.06-.36,1.17,1.17,0,0,0-.17-.31l.11-.11a.88.88,0,0,0,.27.17,1.62,1.62,0,0,0,.4.06h6.59v-3h-6.59a1.32,1.32,0,0,0-.38,0,1.07,1.07,0,0,0-.31.18l-.11-.11a1.68,1.68,0,0,0,.19-.34,1,1,0,0,0,0-.33v-4a1.12,1.12,0,0,0-.06-.36,1.37,1.37,0,0,0-.17-.32l.1-.11a1.53,1.53,0,0,0,.35.19,1.07,1.07,0,0,0,.34,0h7.53l-.33-3h-10.9V44.48H143.4l.36-3ZM126.14,25h-11V44.48h3.22V36.6a1.18,1.18,0,0,0,0-.38,1.47,1.47,0,0,0-.17-.31l.11-.11a1.32,1.32,0,0,0,.3.19,1.06,1.06,0,0,0,.37,0h6.53v-3h-6.58a1.36,1.36,0,0,0-.41,0,1.26,1.26,0,0,0-.27.17l-.11-.1a1.38,1.38,0,0,0,.23-.34.9.9,0,0,0,.06-.33V28.57a2,2,0,0,0-.11-.41,1,1,0,0,0-.18-.26l.12-.11a1.11,1.11,0,0,0,.3.18,1.29,1.29,0,0,0,.37,0h7.77Z"/></g></g></svg>