<?xml version="1.0" encoding="utf-8"?>
<!-- Generator: Adobe Illustrator 21.1.0, SVG Export Plug-In . SVG Version: 6.00 Build 0)  -->
<svg version="1.1"
	 id="F" inkscape:version="0.91 r13725" sodipodi:docname="kbs_logo_fr.svg" xmlns:cc="http://creativecommons.org/ns#" xmlns:dc="http://purl.org/dc/elements/1.1/" xmlns:inkscape="http://www.inkscape.org/namespaces/inkscape" xmlns:rdf="http://www.w3.org/1999/02/22-rdf-syntax-ns#" xmlns:sodipodi="http://sodipodi.sourceforge.net/DTD/sodipodi-0.dtd" xmlns:svg="http://www.w3.org/2000/svg"
	 xmlns="http://www.w3.org/2000/svg" xmlns:xlink="http://www.w3.org/1999/xlink" x="0px" y="0px" viewBox="0 0 220 100"
	 style="enable-background:new 0 0 220 100;" xml:space="preserve">
<style type="text/css">
	.st0{fill:#FFFFFF;}
</style>
<sodipodi:namedview  bordercolor="#666666" borderopacity="1" gridtolerance="10" guidetolerance="10" id="namedview171" inkscape:current-layer="F" inkscape:cx="155.89999" inkscape:cy="63.799999" inkscape:pageopacity="0" inkscape:pageshadow="2" inkscape:window-height="706" inkscape:window-maximized="1" inkscape:window-width="1366" inkscape:window-x="-8" inkscape:window-y="-8" inkscape:zoom="1.148172" objecttolerance="10" pagecolor="#ffffff" showgrid="false">
	</sodipodi:namedview>
<g id="g5" transform="translate(-10.000001,0.400002)">
	<polygon id="polygon7" class="st0" points="60,74.1 60,12.9 60,12.9 60.9,12.9 60.9,74.1 	"/>
	<path class="st0" d="M48.5,59.9c-1.2-4-4.7-6.4-8.3-6.8c0.5-0.2,4.6-2.2,5.8-4.8c1.1-2.5,1.2-4.7,0.1-7c-1.8-4.1-6.2-4.8-11.1-4.4
		c-3.2,0.2-6.2,0.2-9.4-0.1v0.9c0.6-0.1,1.9-0.1,2.9,0.4s1,1.1,1.1,1.8c0,0,0.2,2.7,0.3,4.5C30,45,30,45.4,30,46
		c0.1,3.9,0.1,9.9,0.1,9.9s0,5.4-0.1,8.9c-0.1,2.7-0.3,6.5-0.7,7c-0.9,1.3-2.2,1-3.1,1.2l0.2,1c0,0,0.9-0.1,2.3-0.1
		c3.1,0,4.8,0.2,8,0.3c4.7,0.1,7.3-1,9.5-3.3C48.6,68.4,49.7,64.1,48.5,59.9z M43.4,69.4c-2,2.6-4.7,3.4-8,2.8
		c-0.8-0.1-1.1-0.2-2-0.6c0,0-0.2-5.8-0.2-9.5c-0.1-6.1,0-9.5,0-15.5c0-3.1,0.1-7.9,0.1-7.9c2.2-0.5,4.9-0.3,6.7,0.9
		c0.9,0.6,1.3,1,1.9,1.8c1.8,2.4,1.7,5.7,0.7,7.5c-1.3,2.5-3.7,3.7-6.1,3.7c-0.7,0-1.1-0.1-1.7-0.3l-0.3,1.9
		c0.9-0.3,1.4-0.3,2.4-0.3c3.3,0,5.1,1.9,6.8,4.6C45.8,61.9,45.2,67,43.4,69.4z"/>
	<path id="path11" inkscape:connector-curvature="0" class="st0" d="M31.7,14.1c0-0.6,0.5-1.1,1.1-1.1s1.1,0.5,1.1,1.1
		s-0.5,1.1-1.1,1.1S31.7,14.7,31.7,14.1C31.7,14.1,31.7,14.1,31.7,14.1z"/>
	<path id="path13" inkscape:connector-curvature="0" class="st0" d="M29.2,14.3c0-0.6,0.5-1.1,1.1-1.1s1.1,0.5,1.1,1.1
		s-0.5,1.1-1.1,1.1S29.2,14.9,29.2,14.3L29.2,14.3z"/>
	<path id="path15" inkscape:connector-curvature="0" class="st0" d="M28.1,18.6c0-0.6,0.5-1.1,1.1-1.1s1.1,0.5,1.1,1.1
		s-0.5,1.1-1.1,1.1S28.1,19.2,28.1,18.6L28.1,18.6z"/>
	<path id="path17" inkscape:connector-curvature="0" class="st0" d="M27.5,16.2c0-0.6,0.5-1.1,1.1-1.1s1.1,0.5,1.1,1.1
		c0,0.6-0.5,1.1-1.1,1.1S27.5,16.8,27.5,16.2L27.5,16.2z"/>
	<path id="path19" inkscape:connector-curvature="0" class="st0" d="M25.2,15.1c0-0.6,0.5-1.1,1.1-1.1s1.1,0.5,1.1,1.1
		s-0.5,1.1-1.1,1.1C25.7,16.3,25.2,15.7,25.2,15.1L25.2,15.1z"/>
	<path id="path21" inkscape:connector-curvature="0" class="st0" d="M22.8,16.1c0-0.6,0.5-1.1,1.1-1.1s1.1,0.5,1.1,1.1
		c0,0.6-0.5,1.1-1.1,1.1S22.8,16.7,22.8,16.1L22.8,16.1z"/>
	<path id="path23" inkscape:connector-curvature="0" class="st0" d="M21.2,18.1c0-0.6,0.5-1.1,1.1-1.1s1.1,0.5,1.1,1.1
		s-0.5,1.1-1.1,1.1S21.2,18.7,21.2,18.1L21.2,18.1z"/>
	<path id="path25" inkscape:connector-curvature="0" class="st0" d="M21.4,20.7c0-0.6,0.5-1.1,1.1-1.1s1.1,0.5,1.1,1.1
		s-0.5,1.1-1.1,1.1S21.4,21.3,21.4,20.7L21.4,20.7z"/>
	<path id="path27" inkscape:connector-curvature="0" class="st0" d="M27.4,31c0-0.8,4.2-1.4,9.4-1.4s9.4,0.6,9.4,1.4
		s-4.2,1.4-9.4,1.4S27.4,31.7,27.4,31C27.4,31,27.4,31,27.4,31z"/>
	<path id="path29" inkscape:connector-curvature="0" class="st0" d="M36.8,14.7c-1,0-1.8-0.7-1.9-1.7c0.7-0.3,1.2-0.3,1.9-0.3
		c0.8,0,1.3,0.1,1.9,0.3C38.6,14,37.8,14.7,36.8,14.7L36.8,14.7z"/>
	<path id="path31" inkscape:connector-curvature="0" class="st0" d="M39.6,14.1c0-0.6,0.5-1.1,1.1-1.1s1.1,0.5,1.1,1.1
		s-0.5,1.1-1.1,1.1S39.6,14.7,39.6,14.1L39.6,14.1z"/>
	<path id="path33" inkscape:connector-curvature="0" class="st0" d="M42.1,14.3c0-0.6,0.5-1.1,1.1-1.1s1.1,0.5,1.1,1.1
		s-0.5,1.1-1.1,1.1S42.1,14.9,42.1,14.3L42.1,14.3z"/>
	<path id="path35" inkscape:connector-curvature="0" class="st0" d="M43.7,16.1c0-0.6,0.5-1.1,1.1-1.1s1.1,0.5,1.1,1.1
		c0,0.6-0.5,1.1-1.1,1.1C44.3,17.2,43.7,16.7,43.7,16.1L43.7,16.1z"/>
	<path id="path37" inkscape:connector-curvature="0" class="st0" d="M46.1,15c0-0.6,0.5-1.1,1.1-1.1s1.1,0.5,1.1,1.1
		s-0.5,1.1-1.1,1.1C46.6,16.2,46.1,15.7,46.1,15L46.1,15z"/>
	<path id="path39" inkscape:connector-curvature="0" class="st0" d="M43.2,18.5c0-0.6,0.5-1.1,1.1-1.1s1.1,0.5,1.1,1.1
		s-0.5,1.1-1.1,1.1S43.2,19.1,43.2,18.5L43.2,18.5z"/>
	<path id="path41" inkscape:connector-curvature="0" class="st0" d="M48.5,16c0-0.6,0.5-1.1,1.1-1.1s1.1,0.5,1.1,1.1
		c0,0.6-0.5,1.1-1.1,1.1S48.5,16.6,48.5,16L48.5,16z"/>
	<path id="path43" inkscape:connector-curvature="0" class="st0" d="M50.1,18c0-0.6,0.5-1.1,1.1-1.1s1.1,0.5,1.1,1.1
		s-0.5,1.1-1.1,1.1S50.1,18.6,50.1,18L50.1,18z"/>
	<path id="path45" inkscape:connector-curvature="0" class="st0" d="M49.9,20.5c0-0.6,0.5-1.1,1.1-1.1s1.1,0.5,1.1,1.1
		s-0.5,1.1-1.1,1.1C50.4,21.7,49.9,21.1,49.9,20.5L49.9,20.5z"/>
	<path id="path47" inkscape:connector-curvature="0" class="st0" d="M38.7,12.3c-0.1-0.6-0.5-1.1-1.1-1.4L37.1,10l0.1-0.1l0.9,0.5
		V8.9l-0.9,0.5l-0.1-0.1l0.5-0.9H36l0.5,0.9l-0.1,0.1l-0.9-0.5v1.4l0.9-0.5l0.1,0.1l-0.5,1c-0.6,0.3-1,0.8-1.1,1.4
		c0,0,0.1-0.3,1.4-0.3v-1c0.2-0.1,0.3-0.1,0.5-0.1s0.3,0,0.5,0.1v1C38.6,12,38.7,12.3,38.7,12.3C38.7,12.3,38.7,12.3,38.7,12.3z"/>
	<path id="path49" inkscape:connector-curvature="0" class="st0" d="M36.8,18.9c-1,0-0.9,0.1-1.3,0.2c0-1.6-0.3-3.1-1.4-4.5
		C34,14.2,34.6,14,34.6,14c0.4,0.8,1.3,1.3,2.2,1.3s1.8-0.5,2.2-1.3c0,0,0.6,0.2,0.5,0.6c-1.1,1.4-1.4,2.9-1.4,4.5
		C37.7,19,37.8,18.9,36.8,18.9L36.8,18.9L36.8,18.9z"/>
	<path id="path51" inkscape:connector-curvature="0" class="st0" d="M36.8,19.3c0.4,0,1,0.1,1.2,0.3c0,0.6-0.3,0.6-0.5,0.8
		c-0.3,0.3-0.2,0.9,0.3,1c0.2,0,0.5-0.1,0.7-0.4c0.1-0.2,0.1-0.4,0.3-0.4c0.3-0.1,0.4,0.3,0.5,0.6c0.1,0.3-0.1,1.7-0.7,1.6
		c-0.4-0.1-0.2-0.6-0.7-0.7c-0.3-0.1-0.4-0.2-0.7,0c-0.4,0.2-0.2,1,0,1.5c0.2,0.3,0.3,0.6,0.6,0.7c1.1,0.5,1.8-1.7,1.9-2.1
		c-0.2-0.1-0.3-0.3-0.2-0.5s0.2-0.2,0.3-0.3c0.2,0,0.4,0.1,0.5,0.3c0.1,0.2,0,0.3-0.1,0.5c-0.1,0.1-0.2,0.1-0.3,0.1
		c-0.1,0.5-0.2,2,0.6,2.3c0.3,0.1,0.9-0.3,1.2-0.8s0.7-1.4,0.2-1.5c-0.2-0.1-0.4-0.1-0.6,0.1c-0.4,0.3-0.4,0.7-0.8,0.5
		c-0.2-0.1-0.1-0.6,0-1c0.1-0.5,0.3-1.1,0.7-1.1s0.3,0.7,0.8,0.8c0.2,0.1,0.4-0.1,0.5-0.2c0.2-0.2,0.1-0.4,0.1-0.6
		c0-0.3-0.3-0.4-0.2-0.7c0-0.8,2-0.5,2.2,0.3c0.1,0.4-1.2,0.7-1,1.4c0,0.2,0.4,0.2,0.6,0.1c0.4-0.1,0.4-0.5,0.8-0.5
		c0.8-0.1-0.4,2.5-0.8,2c-0.2-0.2-0.1-0.5-0.3-0.6c-0.1-0.1-0.1-0.1-0.2-0.1c-0.6-0.2-1.1,0.7-1,1.3c0,0.4,0.1,0.8,0.5,0.9
		c0.5,0.1,1.5-0.6,2.2-1.8c-0.1-0.2-0.1-0.4,0-0.5c0.1-0.2,0.2-0.2,0.4-0.2c0.1,0,0.2,0.1,0.3,0.2c0.1,0.2,0.1,0.4,0,0.5
		s-0.2,0.2-0.4,0.2c-0.3,0.5-1,2-0.1,2.2c0.5,0.1,1.3-0.5,1.5-0.6c0.4-0.4,1.2-1,0.8-1.2c-0.6-0.3-1.1,0.6-1.5,0.2
		c-0.2-0.3,0.1-0.9,0.4-1.3c0.2-0.3,0.3-0.5,0.6-0.6c0.5-0.1,0.3,0.9,0.8,1.1c1,0.3,0.3-1.5,1.2-1.6c0.4,0,0.7,0,0.8,0.3
		c0.1,0.2,0,0.6,0,0.6c-2.1,1.9-3,3.4-4,4.9c-0.3-0.9-4.2-1.6-9.4-1.6s-9.1,0.7-9.4,1.6c-0.6-1.1-1.9-3-4-4.9c0,0-0.1-0.4,0-0.6
		c0.2-0.3,0.4-0.4,0.8-0.3c0.9,0.1,0.1,1.9,1.2,1.6c0.5-0.1,0.3-1.2,0.8-1.1c0.3,0.1,0.4,0.3,0.6,0.6c0.3,0.5,0.6,1.1,0.4,1.3
		c-0.4,0.4-0.9-0.6-1.5-0.2c-0.4,0.3,0.4,0.8,0.8,1.2c0.1,0.1,1,0.8,1.5,0.6c0.8-0.3,0.1-1.7-0.1-2.2c-0.2,0-0.3,0-0.4-0.2
		s-0.1-0.4,0-0.5s0.2-0.1,0.3-0.2c0.2,0,0.3,0.1,0.4,0.2c0.1,0.2,0.1,0.3,0,0.5c0.7,1.2,1.7,1.9,2.2,1.8c0.4-0.1,0.5-0.5,0.5-0.9
		c0.1-0.7-0.4-1.6-1-1.3c-0.1,0-0.2,0.1-0.2,0.1c-0.2,0.2-0.1,0.4-0.3,0.6c-0.5,0.6-1.7-2.1-0.8-2c0.4,0.1,0.4,0.4,0.8,0.5
		C29.6,22,30,22,30,21.8c0.1-0.7-1.2-1-1-1.4c0.2-0.8,2.1-1.1,2.2-0.3c0,0.3-0.2,0.4-0.2,0.7c0,0.2,0,0.4,0.1,0.6s0.3,0.3,0.5,0.2
		c0.5-0.1,0.3-0.8,0.8-0.8c0.4,0,0.5,0.6,0.7,1.1c0.1,0.4,0.2,0.9,0,1c-0.3,0.1-0.4-0.2-0.8-0.5c-0.2-0.2-0.4-0.2-0.6-0.1
		c-0.5,0.1-0.1,1,0.2,1.5s0.9,0.9,1.2,0.8c0.8-0.3,0.7-1.8,0.6-2.3c-0.1,0-0.2-0.1-0.3-0.1c-0.1-0.1-0.1-0.3-0.1-0.5
		c0.1-0.2,0.3-0.3,0.5-0.3s0.3,0.1,0.3,0.3c0.1,0.2,0,0.4-0.2,0.5c0.1,0.4,0.8,2.5,1.9,2.1c0.3-0.2,0.5-0.4,0.6-0.7
		c0.3-0.5,0.4-1.4,0-1.5c-0.3-0.1-0.4-0.1-0.7,0c-0.5,0.2-0.3,0.7-0.7,0.7c-0.6,0.1-0.8-1.3-0.7-1.6c0.1-0.3,0.2-0.7,0.5-0.6
		c0.2,0,0.2,0.2,0.3,0.4c0.2,0.2,0.5,0.4,0.7,0.4c0.5-0.1,0.6-0.8,0.3-1c-0.2-0.2-0.5-0.3-0.5-0.8C35.7,19.4,36.4,19.3,36.8,19.3
		C36.8,19.3,36.8,19.3,36.8,19.3z"/>
	<path id="path53" inkscape:connector-curvature="0" class="st0" d="M36.8,26.4l-1.9,1.1l1.9,1.1l1.9-1.1L36.8,26.4L36.8,26.4z
		 M43.2,28.7l-2.9-0.4v-1.5l2.9,0.3V28.7L43.2,28.7z M44.4,28.3l1.1-0.3l0.8,1.2l-0.7,0.4L44.4,28.3C44.4,28.3,44.4,28.3,44.4,28.3z
		 M30.3,28.7l2.9-0.4v-1.5l-2.9,0.3V28.7L30.3,28.7z M29.1,28.3L28,28l-0.8,1.2l0.7,0.4L29.1,28.3C29.1,28.3,29.1,28.3,29.1,28.3z
		 M36.8,26.3c5.2,0,9.4,0.5,9.3,1.7c0,0.3,0.3,0.7,0.8,1.3c-0.2,0.2-0.9,0.2-0.8,0.9c-0.7-0.7-5.6-1.2-9.2-1.2
		c-3.7,0-8.5,0.4-9.2,1.2c0.1-0.6-0.6-0.6-0.8-0.9c0.5-0.7,0.8-1,0.8-1.3C27.4,26.8,31.6,26.3,36.8,26.3
		C36.8,26.3,36.8,26.3,36.8,26.3z"/>
	<polygon id="polygon55" class="st0" points="12.9,74.1 12.9,12.9 12.9,12.9 13.8,12.9 13.8,74.1 	"/>
</g>
<g id="g57" transform="translate(-10.000001,0.400002)">
	<path id="path59" inkscape:connector-curvature="0" class="st0" d="M74.2,44.6V50h-1.6V37.9h6.9v1.4h-5.3v4h5.3v1.3
		C79.5,44.6,74.2,44.6,74.2,44.6z"/>
	<path id="path61" inkscape:connector-curvature="0" class="st0" d="M85.8,50.2c-2.4,0-4-1.6-4-4.2c0-2.2,1.6-4,4.1-4
		c2.4,0,4,1.6,4,4.1S88.1,50.2,85.8,50.2z M85.7,43.1c-1.6,0-2.5,1.3-2.5,2.8c0,1.7,0.8,3.2,2.7,3.2c1.6,0,2.3-1.3,2.3-2.8
		C88.3,44.4,87.3,43.1,85.7,43.1z"/>
	<path id="path63" inkscape:connector-curvature="0" class="st0" d="M97.9,50c0,0,0-4.5,0-5.2c-0.1-1.1-0.6-1.6-1.7-1.6
		c-1.2,0-1.9,0.6-1.9,0.6V50h-1.5v-7.9h1.5V43c0.4-0.3,1.3-1,2.6-1c1.4,0,2.4,0.8,2.5,2.5c0.1,1.2,0,5.6,0,5.6L97.9,50L97.9,50z"/>
	<path id="path65" inkscape:connector-curvature="0" class="st0" d="M108.1,50v-0.7c-0.4,0.3-1.1,0.8-2.4,0.8
		c-1.9,0-3.4-1.6-3.4-3.9c0-2.5,1.7-4.3,4.1-4.3c1,0,1.6,0.3,1.6,0.3v-5h1.5V50C109.5,50,108.1,50,108.1,50z M108.1,43.5
		c0,0-0.6-0.4-1.6-0.4c-1.3,0-2.6,0.7-2.6,3c0,1.9,0.9,3,2.6,3c1,0,1.6-0.6,1.6-0.6V43.5z"/>
	<path id="path67" inkscape:connector-curvature="0" class="st0" d="M117.9,50.2c-0.8,0-1.1-0.9-1.1-0.9s-0.9,0.9-2.1,0.9
		s-2.2-0.8-2.2-2.1s0.9-1.9,2-2.3c0.9-0.3,2.2-0.4,2.2-0.4s0-0.2,0-0.6c0-0.4,0-0.9-0.3-1.2s-0.8-0.4-1.2-0.4
		c-1.4,0-2.3,0.9-2.3,0.9l-0.3-1.1c0,0,1.5-1,3-1c1.6,0,2.4,0.9,2.4,1.9c0,1.6-0.1,3.1-0.1,3.9c0,0.9,0.2,1.3,0.7,1.3
		c0.4,0,0.8-0.2,0.8-0.2v0.8C119.5,49.7,118.6,50.2,117.9,50.2z M115.3,46.5c-0.8,0.2-1.4,0.6-1.4,1.3c0,1,0.8,1.3,1.4,1.3
		s1-0.4,1.3-0.7v-2.2C116.7,46.3,116,46.3,115.3,46.5z"/>
	<path id="path69" inkscape:connector-curvature="0" class="st0" d="M123.7,50.2c-0.9,0-1.4-0.4-1.6-1s-0.2-1.5-0.2-2.3
		c0-1.6,0.1-3.4,0.1-3.4h-1.2v-1.1h1.2l0.5-1.9h1v1.9h2.3v1h-2.3c0,0,0,1.5-0.1,2.9c0,1,0,1.6,0.1,2s0.4,0.6,0.8,0.6
		c0.7,0,1.3-0.4,1.6-0.7l0.2,1C126,49.3,125,50.2,123.7,50.2z"/>
	<path id="path71" inkscape:connector-curvature="0" class="st0" d="M129.4,39.9c-0.5,0-1-0.4-1-1c0-0.5,0.4-1,1-1c0.5,0,1,0.4,1,1
		C130.4,39.4,129.9,39.9,129.4,39.9z M128.7,50v-7.9h1.5V50H128.7z"/>
	<path id="path73" inkscape:connector-curvature="0" class="st0" d="M137.1,50.2c-2.4,0-4-1.6-4-4.2c0-2.2,1.6-4,4.1-4
		c2.4,0,4,1.6,4,4.1S139.5,50.2,137.1,50.2z M137.1,43.1c-1.6,0-2.5,1.3-2.5,2.8c0,1.7,0.8,3.2,2.7,3.2c1.6,0,2.3-1.3,2.3-2.8
		C139.7,44.4,138.7,43.1,137.1,43.1z"/>
	<path id="path75" inkscape:connector-curvature="0" class="st0" d="M149.3,50c0,0,0-4.5,0-5.2c-0.1-1.1-0.6-1.6-1.7-1.6
		c-1.2,0-1.9,0.6-1.9,0.6V50h-1.5v-7.9h1.5V43c0.4-0.3,1.3-1,2.6-1c1.4,0,2.4,0.8,2.5,2.5c0.1,1.2,0,5.6,0,5.6L149.3,50L149.3,50z"
		/>
	<path id="path77" inkscape:connector-curvature="0" class="st0" d="M82.5,74c0,0-0.4,0.1-0.9,0.1c-0.4,0-0.8-0.1-1.2-0.4
		c-0.5-0.3-1.1-0.9-2.1-2c-0.8-0.9-2.1-2.5-2.1-2.5l-2-0.1v5h-1.6V61.9c0,0,1.5,0,3,0c1.2,0,2.1,0.1,2.9,0.5c1,0.5,1.6,1.4,1.6,2.7
		c0,2.4-1.9,3.3-2.3,3.5c0,0,0.9,1.2,2,2.3c0.3,0.3,1,1.1,1.7,1.6c0.8,0.6,1.2,0.5,1.2,0.5L82.5,74z M77.6,63.6
		c-0.4-0.4-1.2-0.6-2.1-0.6s-1.3,0-1.3,0v4.9c0,0,0.7,0.1,1.4,0.1c1.7,0,2.7-0.9,2.7-2.7C78.4,64.8,78.2,64.1,77.6,63.6z"/>
	<path id="path79" inkscape:connector-curvature="0" class="st0" d="M88.3,74.2c-2.4,0-4-1.6-4-4.2c0-2.2,1.6-4,4.1-4
		c2.4,0,4,1.6,4,4.1S90.6,74.2,88.3,74.2z M88.3,67.1c-1.6,0-2.5,1.3-2.5,2.8c0,1.7,0.8,3.2,2.7,3.2c1.6,0,2.3-1.3,2.3-2.8
		C90.8,68.5,89.9,67.1,88.3,67.1z"/>
	<path id="path81" inkscape:connector-curvature="0" class="st0" d="M96,63.9c-0.5,0-1-0.4-1-1c0-0.5,0.4-1,1-1s1,0.4,1,1
		C97,63.4,96.5,63.9,96,63.9z M95.3,74v-7.9h1.5V74H95.3z"/>
	<path id="path83" inkscape:connector-curvature="0" class="st0" d="M108.6,74.1c-1.3,0-3.4,0-3.4,0V61.9c0,0,2,0,3.2,0
		c2.3,0,4,0.8,4,2.9c0,1.9-1.8,2.7-1.8,2.7s2.7,0.5,2.7,2.9C113.3,73.1,111.1,74.1,108.6,74.1z M108.2,63c-0.6,0-1.4,0-1.4,0v4.1
		c0,0,0.5,0.1,1.3,0.1c1.9,0,2.6-1,2.6-2.2C110.6,63.7,109.7,63,108.2,63z M110.5,68.8c-0.7-0.5-1.5-0.5-2.5-0.5c-0.9,0-1.2,0-1.2,0
		v4.6c0,0,0.5,0.1,1.9,0.1c1.5,0,2.9-0.6,2.9-2.3C111.5,69.7,111.1,69.2,110.5,68.8z"/>
	<path id="path85" inkscape:connector-curvature="0" class="st0" d="M121.2,74.2c-0.8,0-1.1-0.9-1.1-0.9s-0.9,0.9-2.1,0.9
		s-2.2-0.8-2.2-2.1c0-1.3,0.9-1.9,2-2.3c0.9-0.3,2.2-0.4,2.2-0.4s0-0.2,0-0.6s0-0.9-0.3-1.2c-0.3-0.3-0.8-0.4-1.2-0.4
		c-1.4,0-2.3,0.9-2.3,0.9L116,67c0,0,1.5-1,3-1c1.6,0,2.4,0.9,2.4,1.9c0,1.6-0.1,3.1-0.1,3.9c0,0.9,0.2,1.3,0.7,1.3
		c0.4,0,0.8-0.2,0.8-0.2v0.8C122.8,73.7,121.9,74.2,121.2,74.2L121.2,74.2z M118.6,70.5c-0.8,0.2-1.4,0.6-1.4,1.3
		c0,1,0.8,1.3,1.4,1.3s1-0.4,1.3-0.7v-2.2C120,70.3,119.3,70.3,118.6,70.5L118.6,70.5z"/>
	<path id="path87" inkscape:connector-curvature="0" class="st0" d="M130.2,74v-0.8c-0.4,0.3-1.3,0.9-2.6,0.9
		c-1.4,0-2.3-0.7-2.4-2.4c-0.1-1.2,0-5.5,0-5.5h1.5c0,0,0,4.5,0,5.2c0.1,1.1,0.5,1.6,1.7,1.6s1.9-0.7,1.9-0.7v-6.1h1.5V74H130.2
		L130.2,74z"/>
	<path id="path89" inkscape:connector-curvature="0" class="st0" d="M140.3,74v-0.7c-0.4,0.3-1.1,0.8-2.4,0.8
		c-1.9,0-3.4-1.6-3.4-3.9c0-2.5,1.7-4.3,4.1-4.3c1,0,1.6,0.3,1.6,0.3v-5h1.5V74L140.3,74L140.3,74z M140.3,67.5c0,0-0.6-0.5-1.6-0.5
		c-1.3,0-2.6,0.7-2.6,3c0,1.9,0.9,3,2.6,3c1,0,1.6-0.6,1.6-0.6V67.5z"/>
	<path id="path91" inkscape:connector-curvature="0" class="st0" d="M148.8,74.2c-2.4,0-4-1.6-4-4.2c0-2.2,1.6-4,4.1-4
		c2.4,0,4,1.6,4,4.1S151.2,74.2,148.8,74.2z M148.8,67.1c-1.6,0-2.5,1.3-2.5,2.8c0,1.7,0.8,3.2,2.7,3.2c1.6,0,2.3-1.3,2.3-2.8
		C151.4,68.5,150.4,67.1,148.8,67.1z"/>
	<path id="path93" inkscape:connector-curvature="0" class="st0" d="M160.9,74v-0.8c-0.4,0.3-1.3,0.9-2.6,0.9
		c-1.4,0-2.3-0.7-2.4-2.4c-0.1-1.2,0-5.5,0-5.5h1.5c0,0,0,4.5,0,5.2c0.1,1.1,0.5,1.6,1.7,1.6s1.9-0.7,1.9-0.7v-6.1h1.5V74H160.9
		L160.9,74z"/>
	<path id="path95" inkscape:connector-curvature="0" class="st0" d="M166.9,63.9c-0.5,0-1-0.4-1-1c0-0.5,0.4-1,1-1c0.5,0,1,0.4,1,1
		C167.8,63.4,167.4,63.9,166.9,63.9z M166.1,74v-7.9h1.5V74H166.1z"/>
	<path id="path97" inkscape:connector-curvature="0" class="st0" d="M176.5,74c0,0,0-4.5,0-5.2c-0.1-1.1-0.6-1.6-1.7-1.6
		c-1.2,0-1.9,0.6-1.9,0.6V74h-1.5v-7.9h1.5V67c0.4-0.3,1.3-1,2.6-1c1.4,0,2.4,0.8,2.5,2.5c0.1,1.2,0,5.6,0,5.6L176.5,74L176.5,74z"
		/>
</g>
<g id="g99" transform="translate(-10.000001,0.400002)">
	<path id="path101" inkscape:connector-curvature="0" class="st0" d="M19.3,94.7l-0.7-3.2h-2.8l-1.6,3.2h-1.1l4.6-8.7h0.8l2,8.7
		C20.5,94.7,19.3,94.7,19.3,94.7z M17.7,87.7l-1.5,3h2.2L17.7,87.7z"/>
	<path id="path103" inkscape:connector-curvature="0" class="st0" d="M26.5,91.7c-0.3,1.4-0.4,1.7-0.4,2.5c0,0.3,0.1,1,0.1,1.3
		c0,1-0.1,1.7-0.8,2.3c-0.5,0.4-1.2,0.7-2.1,0.7c-1.5,0-2.4-0.9-2.4-0.9l0.3-0.8c0,0,1,0.9,2.3,0.9c0.8,0,1.2-0.3,1.6-0.6
		c0.3-0.3,0.3-0.9,0.3-1.5s-0.1-1-0.1-1.3c0-0.7,0.1-0.9,0.1-0.9s-1,1.6-2.7,1.6c-0.7,0-0.9-0.6-0.9-1.5c0-1.3,0.5-3,1.6-3.9
		c0.5-0.4,1-0.5,1.6-0.5c0.8,0,1.2,0.4,1.2,0.4l0.2-0.4H27C27.1,89,26.8,90.3,26.5,91.7z M24.9,89.7c-0.4,0-0.8,0.2-1.1,0.5
		c-0.6,0.6-1,2-1,3.1c0,0.6,0.2,0.7,0.5,0.7c0.4,0,0.9-0.2,1.4-0.8c0.5-0.5,0.9-1.1,1-1.6L26,90C25.8,89.9,25.5,89.7,24.9,89.7z"/>
	<path id="path105" inkscape:connector-curvature="0" class="st0" d="M28.9,94.7H28l0.9-5.7h0.9L28.9,94.7z M29.6,87.4
		c-0.5,0-0.5-0.4-0.5-0.6c0-0.5,0.3-0.8,0.7-0.8c0.4,0,0.5,0.2,0.5,0.6S30,87.4,29.6,87.4z"/>
	<path id="path107" inkscape:connector-curvature="0" class="st0" d="M34.8,90.3c0,0-0.3-0.4-0.7-0.4c-0.7,0-1.4,0.9-1.9,2.5
		c-0.1,0.3-0.4,2.3-0.4,2.3h-0.9c0.1-0.9,0.8-4.2,0.9-5.7h1c-0.1,0.7-0.3,1.7-0.3,1.7c0.5-1.1,1.3-1.8,2-1.8c0.6,0,0.9,0.5,0.9,0.5
		S34.8,90.3,34.8,90.3z"/>
	<path id="path109" inkscape:connector-curvature="0" class="st0" d="M40.5,92c-0.8,0.3-1.7,0.4-1.7,0.4s0,0.2,0,0.4
		c0,0.7,0.3,1.2,1,1.2c1.2,0,2.2-1,2.2-1l0.4,0.7c0,0-1.2,1.2-2.8,1.2c-1,0-1.8-0.5-1.8-1.9c0-1.9,1-4,3.1-4c0.9,0,1.5,0.4,1.5,1.2
		C42.4,91.1,41.7,91.6,40.5,92z M40.7,89.7c-0.7,0-1.5,0.6-1.8,2c0,0,0.5-0.1,1.3-0.3c0.7-0.2,1.2-0.5,1.2-1.1
		C41.4,89.8,41,89.7,40.7,89.7z"/>
	<path id="path111" inkscape:connector-curvature="0" class="st0" d="M47.3,94.7c-0.4,0-0.6-0.1-0.6-0.1c0.3-2,0.7-3.9,0.7-4.4
		c0-0.3,0-0.4-0.3-0.4c-0.9,0-2.2,1.4-2.4,2.4c-0.1,0.4-0.5,2.5-0.5,2.5h-0.9c0.1-0.9,0.8-4.5,1-5.7h1c-0.1,0.7-0.3,1.6-0.3,1.6
		s1.1-1.8,2.7-1.8c0.6,0,0.9,0.4,0.9,0.9s-0.4,2.6-0.6,4c0.4,0,1-0.3,1-0.3l0.3,0.6C49,94.2,48.4,94.7,47.3,94.7z"/>
	<path id="path113" inkscape:connector-curvature="0" class="st0" d="M53.8,90c0,0-0.5-0.3-1.3-0.3c-0.7,0-1.1,0.3-1.1,0.7
		c0,0.5,0.3,0.7,1,1.1c0.4,0.3,1.2,0.8,1.2,1.6c0,1.2-0.8,1.7-2.1,1.7c-1,0-1.7-0.5-1.7-0.5l0.1-0.9c0,0,0.8,0.7,1.7,0.7
		c0.7,0,1.1-0.2,1.1-0.7c0-0.4-0.3-0.8-1-1.2c-0.7-0.4-1.2-0.9-1.2-1.6c0-1.1,0.9-1.7,2-1.7c0.9,0,1.3,0.2,1.3,0.2S53.8,90,53.8,90z
		"/>
	<path id="path115" inkscape:connector-curvature="0" class="st0" d="M57.4,92c-0.8,0.3-1.7,0.4-1.7,0.4s0,0.2,0,0.4
		c0,0.7,0.3,1.2,1,1.2c1.2,0,2.2-1,2.2-1l0.4,0.7c0,0-1.2,1.2-2.8,1.2c-1,0-1.8-0.5-1.8-1.9c0-1.9,1-4,3.1-4c0.9,0,1.5,0.4,1.5,1.2
		C59.3,91.1,58.6,91.6,57.4,92z M57.6,89.7c-0.7,0-1.5,0.6-1.8,2c0,0,0.5-0.1,1.3-0.3c0.7-0.2,1.2-0.5,1.2-1.1
		C58.3,89.8,58,89.7,57.6,89.7z"/>
	<path id="path117" inkscape:connector-curvature="0" class="st0" d="M67.6,94.7c-0.4,0-0.6-0.1-0.6-0.1c0.3-2,0.7-3.9,0.7-4.4
		c0-0.3,0-0.4-0.3-0.4c-1,0-2.2,1.6-2.4,2.2c-0.2,1-0.4,2.1-0.5,2.7h-1c0.3-2,0.7-3.9,0.7-4.5c0-0.3,0-0.4-0.3-0.4
		c-0.9,0-2.2,1.4-2.4,2.4c-0.1,0.4-0.5,2.5-0.5,2.5h-0.9c0.1-0.9,0.8-4.5,1-5.7h1c-0.1,0.7-0.3,1.6-0.3,1.6s1.1-1.8,2.7-1.8
		c0.6,0,0.8,0.4,0.8,0.9c0,0.2-0.1,0.8-0.1,0.8s1.1-1.7,2.6-1.7c0.6,0,0.9,0.4,0.9,0.9s-0.4,2.6-0.6,4c0.4,0,1-0.3,1-0.3l0.3,0.6
		C69.3,94.2,68.7,94.7,67.6,94.7z"/>
	<path id="path119" inkscape:connector-curvature="0" class="st0" d="M72.4,94.9c-1.3,0-2.1-0.6-2.1-0.6l1.5-8.7h0.9l-0.9,4.9
		c0.2-0.4,1.1-1.4,2.3-1.4c0.9,0,1.5,0.6,1.5,2C75.6,93.1,74.6,94.9,72.4,94.9z M73.9,89.8c-1,0-2,1.1-2.4,2.4l-0.3,1.5
		c0,0,0.5,0.4,1.3,0.4c1.4,0,2.1-1.3,2.1-3.1C74.6,90.2,74.4,89.8,73.9,89.8z"/>
	<path id="path121" inkscape:connector-curvature="0" class="st0" d="M77.6,94.7h-0.9l1.5-9.2h0.9L77.6,94.7z"/>
	<path id="path123" inkscape:connector-curvature="0" class="st0" d="M82.3,92c-0.8,0.3-1.7,0.4-1.7,0.4s0,0.2,0,0.4
		c0,0.7,0.3,1.2,1,1.2c1.2,0,2.2-1,2.2-1l0.4,0.7c0,0-1.2,1.2-2.8,1.2c-1,0-1.8-0.5-1.8-1.9c0-1.9,1-4,3.1-4c0.9,0,1.5,0.4,1.5,1.2
		C84.1,91.1,83.4,91.6,82.3,92z M82.4,89.7c-0.7,0-1.5,0.6-1.8,2c0,0,0.5-0.1,1.3-0.3c0.7-0.2,1.2-0.5,1.2-1.1
		C83.1,89.8,82.8,89.7,82.4,89.7z"/>
	<path id="path125" inkscape:connector-curvature="0" class="st0" d="M89.7,94.9c-0.7,0-1.2-0.2-1.2-0.2l-0.6,3.7H87
		c0,0,0.5-2.9,0.8-4.7c0.3-1.8,0.7-4.6,0.7-4.6h0.9l-0.2,1.3c0.2-0.4,1.1-1.5,2.3-1.5c0.9,0,1.5,0.6,1.5,2
		C93,92.7,92.1,94.9,89.7,94.9z M91.2,89.8c-0.9,0-2,1.1-2.3,2.4l-0.3,1.6c0,0,0.4,0.4,1.3,0.4c1.4,0,2.1-1.4,2.1-3.1
		C92,90.2,91.7,89.8,91.2,89.8z"/>
	<path id="path127" inkscape:connector-curvature="0" class="st0" d="M96.5,94.9c-1.2,0-2.5-0.6-2.5-2.5s1.2-3.4,3-3.4
		c1.1,0,2.4,0.4,2.4,2.5C99.5,93.2,98.4,94.9,96.5,94.9z M97,89.7c-0.8,0-1.9,0.7-1.9,2.7c0,1.2,0.7,1.7,1.5,1.7
		c0.9,0,1.9-0.9,1.9-2.7C98.5,90.2,97.8,89.7,97,89.7z"/>
	<path id="path129" inkscape:connector-curvature="0" class="st0" d="M104.5,94.8c-0.4,0-0.6-0.1-0.6-0.1l0.3-1.6
		c0,0-0.3,0.5-0.8,0.9s-1.1,0.8-1.9,0.8c-0.6,0-0.8-0.4-0.8-1c0-0.5,0.5-3.2,0.7-4.8h0.9c-0.3,1.9-0.7,3.9-0.7,4.5
		c0,0.3,0,0.4,0.3,0.4c0.9,0,2.2-1.5,2.4-2.4c0.1-0.5,0.5-2.5,0.5-2.5h0.9c0,0-0.3,1.6-0.5,2.6C105,93.3,105,94,105,94
		c0.4,0,1-0.3,1-0.3l0.3,0.6C106.2,94.3,105.6,94.8,104.5,94.8z"/>
	<path id="path131" inkscape:connector-curvature="0" class="st0" d="M111.1,90.3c0,0-0.3-0.4-0.7-0.4c-0.7,0-1.4,0.9-1.9,2.5
		c-0.1,0.3-0.4,2.3-0.4,2.3h-0.9c0.1-0.9,0.8-4.2,0.9-5.7h1c-0.1,0.7-0.3,1.7-0.3,1.7c0.5-1.1,1.3-1.8,2-1.8c0.6,0,0.9,0.5,0.9,0.5
		L111.1,90.3z"/>
	<path id="path133" inkscape:connector-curvature="0" class="st0" d="M118.1,94.8c-0.4,0-0.6-0.1-0.6-0.1l0.3-1.6
		c0,0-0.3,0.5-0.8,0.9s-1.1,0.8-1.9,0.8c-0.6,0-0.8-0.4-0.8-1c0-0.5,0.5-3.2,0.7-4.8h0.9c-0.3,1.9-0.7,3.9-0.7,4.5
		c0,0.3,0,0.4,0.3,0.4c0.9,0,2.2-1.5,2.4-2.4c0.1-0.5,0.5-2.5,0.5-2.5h0.9c0,0-0.3,1.6-0.5,2.6c-0.3,1.6-0.4,2.3-0.4,2.3
		c0.4,0,1-0.3,1-0.3l0.3,0.6C119.9,94.3,119.2,94.8,118.1,94.8z"/>
	<path id="path135" inkscape:connector-curvature="0" class="st0" d="M124.8,94.7c-0.4,0-0.6-0.1-0.6-0.1c0.3-2,0.7-3.9,0.7-4.4
		c0-0.3,0-0.4-0.3-0.4c-0.9,0-2.2,1.4-2.4,2.4c-0.1,0.4-0.5,2.5-0.5,2.5h-0.9c0.1-0.9,0.8-4.5,1-5.7h1c-0.1,0.7-0.3,1.6-0.3,1.6
		s1.1-1.8,2.7-1.8c0.6,0,0.9,0.4,0.9,0.9s-0.4,2.6-0.6,4c0.4,0,1-0.3,1-0.3l0.3,0.6C126.6,94.2,125.9,94.7,124.8,94.7z"/>
	<path id="path137" inkscape:connector-curvature="0" class="st0" d="M130.2,92c-0.8,0.3-1.7,0.4-1.7,0.4s0,0.2,0,0.4
		c0,0.7,0.3,1.2,1,1.2c1.2,0,2.2-1,2.2-1l0.4,0.7c0,0-1.2,1.2-2.8,1.2c-1,0-1.8-0.5-1.8-1.9c0-1.9,1-4,3.1-4c0.9,0,1.5,0.4,1.5,1.2
		C132,91.1,131.4,91.6,130.2,92z M130.3,89.7c-0.7,0-1.5,0.6-1.8,2c0,0,0.5-0.1,1.3-0.3c0.7-0.2,1.2-0.5,1.2-1.1
		C131,89.8,130.7,89.7,130.3,89.7z"/>
	<path id="path139" inkscape:connector-curvature="0" class="st0" d="M139,90c0,0-0.5-0.3-1.3-0.3c-0.7,0-1.1,0.3-1.1,0.7
		c0,0.5,0.3,0.7,1,1.1c0.4,0.3,1.2,0.8,1.2,1.6c0,1.2-0.8,1.7-2.1,1.7c-1,0-1.7-0.5-1.7-0.5l0.1-0.9c0,0,0.8,0.7,1.7,0.7
		c0.7,0,1.1-0.2,1.1-0.7c0-0.4-0.3-0.8-1-1.2c-0.7-0.4-1.2-0.9-1.2-1.6c0-1.1,0.9-1.7,2-1.7c0.9,0,1.3,0.2,1.3,0.2S139,90,139,90z"
		/>
	<path id="path141" inkscape:connector-curvature="0" class="st0" d="M142.5,94.9c-1.2,0-2.5-0.6-2.5-2.5s1.2-3.4,3-3.4
		c1.1,0,2.4,0.4,2.4,2.5C145.4,93.2,144.3,94.9,142.5,94.9z M142.9,89.7c-0.8,0-1.9,0.7-1.9,2.7c0,1.2,0.7,1.7,1.5,1.7
		c0.9,0,1.9-0.9,1.9-2.7C144.4,90.2,143.7,89.7,142.9,89.7z"/>
	<path id="path143" inkscape:connector-curvature="0" class="st0" d="M150.8,90.1c0,0-0.6-0.4-1.4-0.4c-1.4,0-2,1.8-2,3.1
		c0,0.7,0.3,1.2,1,1.2c1.2,0,2.2-1,2.2-1l0.4,0.7c0,0-1.2,1.2-2.8,1.2c-1,0-1.8-0.5-1.8-1.9c0-2,1-4,3.1-4c0.9,0,1.5,0.3,1.5,0.3
		S150.8,90.1,150.8,90.1z"/>
	<path id="path145" inkscape:connector-curvature="0" class="st0" d="M152.8,94.7h-0.9l0.9-5.7h0.9L152.8,94.7z M153.6,87.4
		c-0.5,0-0.5-0.4-0.5-0.6c0-0.5,0.3-0.8,0.7-0.8s0.5,0.2,0.5,0.6S154,87.4,153.6,87.4z"/>
	<path id="path147" inkscape:connector-curvature="0" class="st0" d="M157.5,92c-0.8,0.3-1.7,0.4-1.7,0.4s0,0.2,0,0.4
		c0,0.7,0.3,1.2,1,1.2c1.2,0,2.2-1,2.2-1l0.4,0.7c0,0-1.2,1.2-2.8,1.2c-1,0-1.8-0.5-1.8-1.9c0-1.9,1-4,3.1-4c0.9,0,1.5,0.4,1.5,1.2
		C159.3,91.1,158.7,91.6,157.5,92z M157.7,89.7c-0.7,0-1.5,0.6-1.8,2c0,0,0.5-0.1,1.3-0.3c0.7-0.2,1.2-0.5,1.2-1.1
		C158.4,89.8,158,89.7,157.7,89.7z M157.2,88.4l-0.5-0.4l2.3-2l0.6,0.5L157.2,88.4L157.2,88.4z"/>
	<path id="path149" inkscape:connector-curvature="0" class="st0" d="M163.8,90h-1.7c0,0-0.2,1-0.4,2.1c-0.1,0.6-0.2,1.1-0.2,1.4
		c0,0.5,0.2,0.6,0.5,0.6c0.5,0,1-0.4,1.2-0.6v0.8c0,0-0.7,0.6-1.7,0.6c-0.8,0-1.1-0.5-1.1-1.1c0-0.4,0.2-1.5,0.3-2.2
		c0.1-0.9,0.3-1.6,0.3-1.6h-0.9l0.1-0.8h0.9l0.5-1.4h0.7l-0.2,1.5h1.7L163.8,90L163.8,90z"/>
	<path id="path151" inkscape:connector-curvature="0" class="st0" d="M167.1,92c-0.8,0.3-1.7,0.4-1.7,0.4s0,0.2,0,0.4
		c0,0.7,0.3,1.2,1,1.2c1.2,0,2.2-1,2.2-1l0.4,0.7c0,0-1.2,1.2-2.8,1.2c-1,0-1.8-0.5-1.8-1.9c0-1.9,1-4,3.1-4c0.9,0,1.5,0.4,1.5,1.2
		C168.9,91.1,168.3,91.6,167.1,92z M167.3,89.7c-0.7,0-1.5,0.6-1.8,2c0,0,0.5-0.1,1.3-0.3c0.7-0.2,1.2-0.5,1.2-1.1
		C168,89.8,167.6,89.7,167.3,89.7z M166.8,88.4l-0.5-0.4l2.3-2l0.6,0.5L166.8,88.4L166.8,88.4z"/>
	<path id="path153" inkscape:connector-curvature="0" class="st0" d="M179.8,94.7c-0.4,0-0.6-0.1-0.6-0.1c0.3-2,0.7-3.9,0.7-4.4
		c0-0.3,0-0.4-0.3-0.4c-1,0-2.2,1.6-2.4,2.2c-0.2,1-0.4,2.1-0.5,2.7h-1c0.3-2,0.7-3.9,0.7-4.5c0-0.3,0-0.4-0.3-0.4
		c-0.9,0-2.2,1.4-2.4,2.4c-0.1,0.4-0.5,2.5-0.5,2.5h-0.9c0.1-0.9,0.8-4.5,1-5.7h1c-0.1,0.7-0.3,1.6-0.3,1.6s1.1-1.8,2.7-1.8
		c0.6,0,0.8,0.4,0.8,0.9c0,0.2-0.1,0.8-0.1,0.8s1.1-1.7,2.6-1.7c0.6,0,0.9,0.4,0.9,0.9s-0.4,2.6-0.6,4c0.4,0,1-0.3,1-0.3l0.3,0.6
		C181.5,94.2,180.8,94.7,179.8,94.7L179.8,94.7z"/>
	<path id="path155" inkscape:connector-curvature="0" class="st0" d="M185.1,92c-0.8,0.3-1.7,0.4-1.7,0.4s0,0.2,0,0.4
		c0,0.7,0.3,1.2,1,1.2c1.2,0,2.2-1,2.2-1l0.4,0.7c0,0-1.2,1.2-2.8,1.2c-1,0-1.8-0.5-1.8-1.9c0-1.9,1-4,3.1-4c0.9,0,1.5,0.4,1.5,1.2
		C186.9,91.1,186.3,91.6,185.1,92z M185.2,89.7c-0.7,0-1.5,0.6-1.8,2c0,0,0.5-0.1,1.3-0.3c0.7-0.2,1.2-0.5,1.2-1.1
		C185.9,89.8,185.6,89.7,185.2,89.7z"/>
	<path id="path157" inkscape:connector-curvature="0" class="st0" d="M188.8,94.7h-0.9l0.9-5.7h0.9L188.8,94.7z M189.5,87.4
		c-0.5,0-0.5-0.4-0.5-0.6c0-0.5,0.3-0.8,0.7-0.8s0.5,0.2,0.5,0.6S189.9,87.4,189.5,87.4z"/>
	<path id="path159" inkscape:connector-curvature="0" class="st0" d="M191.7,94.7h-0.9l1.5-9.2h0.9L191.7,94.7z"/>
	<path id="path161" inkscape:connector-curvature="0" class="st0" d="M194.5,94.7h-0.9l1.5-9.2h0.9L194.5,94.7z"/>
	<path id="path163" inkscape:connector-curvature="0" class="st0" d="M199.2,92c-0.8,0.3-1.7,0.4-1.7,0.4s0,0.2,0,0.4
		c0,0.7,0.3,1.2,1,1.2c1.2,0,2.2-1,2.2-1l0.4,0.7c0,0-1.2,1.2-2.8,1.2c-1,0-1.8-0.5-1.8-1.9c0-1.9,1-4,3.1-4c0.9,0,1.5,0.4,1.5,1.2
		C201,91.1,200.4,91.6,199.2,92z M199.4,89.7c-0.7,0-1.5,0.6-1.8,2c0,0,0.5-0.1,1.3-0.3c0.7-0.2,1.2-0.5,1.2-1.1
		C200,89.8,199.7,89.7,199.4,89.7z"/>
	<path id="path165" inkscape:connector-curvature="0" class="st0" d="M205.9,94.8c-0.4,0-0.6-0.1-0.6-0.1l0.3-1.6
		c0,0-0.3,0.5-0.8,0.9s-1.1,0.8-1.9,0.8c-0.6,0-0.8-0.4-0.8-1c0-0.5,0.5-3.2,0.7-4.8h0.9c-0.3,1.9-0.7,3.9-0.7,4.5
		c0,0.3,0,0.4,0.3,0.4c0.9,0,2.2-1.5,2.4-2.4c0.1-0.5,0.5-2.5,0.5-2.5h0.9c0,0-0.3,1.6-0.5,2.6c-0.3,1.6-0.4,2.3-0.4,2.3
		c0.4,0,1-0.3,1-0.3l0.3,0.6C207.6,94.3,206.9,94.8,205.9,94.8L205.9,94.8z"/>
	<path id="path167" inkscape:connector-curvature="0" class="st0" d="M212.5,90.3c0,0-0.3-0.4-0.7-0.4c-0.7,0-1.4,0.9-1.9,2.5
		c-0.1,0.3-0.4,2.3-0.4,2.3h-0.9c0.1-0.9,0.8-4.2,0.9-5.7h1c-0.1,0.7-0.3,1.7-0.3,1.7c0.5-1.1,1.3-1.8,2-1.8c0.6,0,0.9,0.5,0.9,0.5
		L212.5,90.3z"/>
	<path id="path169" inkscape:connector-curvature="0" class="st0" d="M215.7,92c-0.8,0.3-1.7,0.4-1.7,0.4s0,0.2,0,0.4
		c0,0.7,0.3,1.2,1,1.2c1.2,0,2.2-1,2.2-1l0.4,0.7c0,0-1.2,1.2-2.8,1.2c-1,0-1.8-0.5-1.8-1.9c0-1.9,1-4,3.1-4c0.9,0,1.5,0.4,1.5,1.2
		C217.6,91.1,216.9,91.6,215.7,92z M215.9,89.7c-0.7,0-1.5,0.6-1.8,2c0,0,0.5-0.1,1.3-0.3c0.7-0.2,1.2-0.5,1.2-1.1
		C216.6,89.8,216.2,89.7,215.9,89.7z"/>
</g>
</svg>
