<svg xmlns="http://www.w3.org/2000/svg" viewBox="0 0 118.59 47.44"><defs><style>.cls-1{fill:#ee3432;}.cls-2{fill:#f8a165;}</style></defs><title>logo</title><g id="Calque_2" data-name="Calque 2"><g id="Calque_1-2" data-name="Calque 1"><g id="Boussole"><polygon class="cls-1" points="20.21 23.72 13.61 23.72 16.91 0 20.21 23.72"/><polygon class="cls-2" points="13.61 23.72 20.21 23.72 16.91 47.44 13.61 23.72"/></g><g id="Nord"><path class="cls-1" d="M7.29,16.52H6L1,8.7H.9q.1,1.38.1,2.53v5.3H0V7.2H1.22L6.31,15h.05q0-.17-.06-1.11t0-1.34V7.2h1Z"/></g><g id="Sud"><path class="cls-2" d="M6.58,37.76a2.29,2.29,0,0,1-.89,1.92,3.87,3.87,0,0,1-2.42.69,6.07,6.07,0,0,1-2.55-.43v-1A6.72,6.72,0,0,0,2,39.28a6.58,6.58,0,0,0,1.34.14A2.7,2.7,0,0,0,4.93,39a1.35,1.35,0,0,0,.55-1.15,1.47,1.47,0,0,0-.19-.79,1.81,1.81,0,0,0-.65-.57,9.1,9.1,0,0,0-1.39-.59,4.43,4.43,0,0,1-1.86-1.1,2.44,2.44,0,0,1-.56-1.67,2.07,2.07,0,0,1,.81-1.72,3.37,3.37,0,0,1,2.14-.64,6.32,6.32,0,0,1,2.56.51L6,32.24a5.78,5.78,0,0,0-2.25-.48,2.17,2.17,0,0,0-1.35.37,1.22,1.22,0,0,0-.48,1,1.57,1.57,0,0,0,.18.79,1.68,1.68,0,0,0,.6.57,7.49,7.49,0,0,0,1.3.57,5.14,5.14,0,0,1,2,1.12A2.21,2.21,0,0,1,6.58,37.76Z"/></g><g id="Mariam"><path class="cls-1" d="M35.63,20,29.82,4.77h-.09q.16,1.8.16,4.29V20H28V2.83h3L36.47,17h.09L42,2.83h3V20H43v-11q0-1.9.16-4.12h-.09L37.23,20Z"/><path class="cls-1" d="M60.48,20l-2.13-5.45H51.48L49.37,20h-2l6.77-17.2h1.68L62.55,20Zm-2.75-7.24-2-5.31q-.39-1-.8-2.47a22.2,22.2,0,0,1-.74,2.47l-2,5.31Z"/><path class="cls-1" d="M66.89,12.83V20h-2V2.83h4.7A7.39,7.39,0,0,1,74.26,4a4.38,4.38,0,0,1,1.51,3.63,4.55,4.55,0,0,1-3.45,4.59L77,20H74.62l-4.15-7.13Zm0-1.71h2.73a4.72,4.72,0,0,0,3.09-.84,3.12,3.12,0,0,0,1-2.51,2.86,2.86,0,0,0-1-2.45,5.43,5.43,0,0,0-3.22-.75H66.89Z"/><path class="cls-1" d="M79.74,20V2.83h2V20Z"/><path class="cls-1" d="M97.2,20l-2.13-5.45H88.2L86.09,20h-2l6.77-17.2h1.68L99.26,20Zm-2.75-7.24-2-5.31q-.39-1-.8-2.47a22.2,22.2,0,0,1-.74,2.47l-2,5.31Z"/><path class="cls-1" d="M109.2,20,103.39,4.77h-.09q.16,1.8.16,4.29V20h-1.84V2.83h3L110,17h.09l5.47-14.13h3V20h-2v-11q0-1.9.16-4.12h-.09L110.8,20Z"/></g><g id="Faso"><path class="cls-2" d="M30,43.76H28V26.62H37.6v1.77H30v6.27h7.1v1.77H30Z"/><path class="cls-2" d="M51.2,43.76l-2.13-5.45H42.2l-2.11,5.45h-2l6.77-17.2h1.68l6.74,17.2Zm-2.75-7.24-2-5.31q-.39-1-.8-2.47a22.2,22.2,0,0,1-.74,2.47l-2,5.31Z"/><path class="cls-2" d="M65.29,39.2a4.2,4.2,0,0,1-1.64,3.53A7.11,7.11,0,0,1,59.2,44a11.15,11.15,0,0,1-4.69-.79V41.28a12.34,12.34,0,0,0,2.3.7,12.08,12.08,0,0,0,2.46.26,5,5,0,0,0,3-.76,2.48,2.48,0,0,0,1-2.1,2.7,2.7,0,0,0-.36-1.46,3.32,3.32,0,0,0-1.2-1,16.72,16.72,0,0,0-2.55-1.09,8.14,8.14,0,0,1-3.42-2,4.48,4.48,0,0,1-1-3.06,3.8,3.8,0,0,1,1.49-3.15,6.18,6.18,0,0,1,3.94-1.17,11.6,11.6,0,0,1,4.7.94L64.23,29a10.62,10.62,0,0,0-4.12-.89,4,4,0,0,0-2.47.68,2.24,2.24,0,0,0-.89,1.89,2.89,2.89,0,0,0,.33,1.46,3.09,3.09,0,0,0,1.11,1,13.76,13.76,0,0,0,2.38,1,9.44,9.44,0,0,1,3.71,2.06A4.06,4.06,0,0,1,65.29,39.2Z"/><path class="cls-2" d="M83.66,35.17a9.43,9.43,0,0,1-2.08,6.47A7.31,7.31,0,0,1,75.8,44,7.41,7.41,0,0,1,70,41.68a9.51,9.51,0,0,1-2.06-6.53A9.39,9.39,0,0,1,70,28.66a7.46,7.46,0,0,1,5.86-2.3,7.3,7.3,0,0,1,5.77,2.34A9.42,9.42,0,0,1,83.66,35.17ZM70,35.17a8.13,8.13,0,0,0,1.48,5.28,6.05,6.05,0,0,0,8.61,0,8.24,8.24,0,0,0,1.45-5.29,8.18,8.18,0,0,0-1.45-5.24,5.19,5.19,0,0,0-4.28-1.79,5.29,5.29,0,0,0-4.33,1.8A8,8,0,0,0,70,35.17Z"/></g></g></g></svg>